<?xml version="1.0" encoding="utf-8"?>
<svg xmlns="http://www.w3.org/2000/svg" height="65" viewBox="0 0 65 65" width="65">
  <g fill="none" fill-rule="evenodd" transform="translate(1 1)">
    <ellipse cx="31.659355" cy="10.60129" fill="#fff" fill-rule="nonzero" opacity=".05" rx="10.332903" ry="10.322581"/>
    <g stroke="#204ecf" stroke-width=".774194">
      <ellipse cx="31.659355" cy="10.60129" rx="10.332903" ry="10.322581"/>
      <ellipse cx="9.094194" cy="54.110968" rx="9.042581" ry="9.032258"/>
      <circle cx="9.094194" cy="51.489032" r="2.178065"/>
      <path d="m35.5406452 7.89677419-5.1716129 5.40903231-2.5909678-2.7045162"/>
      <path d="m.34064516 3.16903226c.27870968-1.75483871 1.79612903-3.05548387 3.58193549-3.05548387.89806451 0 1.72387096.32 2.36387096.86709677.64.54709678 1.09419355 1.31096774 1.2283871 2.1883871" transform="translate(5.16129 55.741935)"/>
      <g>
        <circle cx="31.659355" cy="51.489032" r="2.178065"/>
        <path d="m.19612903 3.16903226c.27870968-1.75483871 1.79612903-3.05548387 3.58193549-3.05548387.89806451 0 1.72387096.32 2.36387096.86709677.64.54709678 1.09419355 1.31096774 1.2283871 2.1883871" transform="translate(27.870968 55.741935)"/>
      </g>
      <ellipse cx="31.669677" cy="54.110968" rx="9.042581" ry="9.032258"/>
      <g>
        <circle cx="54.224516" cy="51.489032" r="2.178065"/>
        <path d="m.06193548 3.16903226c.27870968-1.75483871 1.79612904-3.05548387 3.58193549-3.05548387.89806451 0 1.72387097.32 2.36387097.86709677.64.54709678 1.09419354 1.31096774 1.22838709 2.1883871" transform="translate(50.580645 55.741935)"/>
      </g>
      <ellipse cx="54.245161" cy="54.110968" rx="9.042581" ry="9.032258"/>
      <path d="m31.659355 24.59871v15.896774"/>
      <path d="m27.0658065 23.6387097v9.3625806h-17.97161295v7.4941936"/>
      <path d="m36.3148387 23.6387097v9.3625806h17.9716129v7.4941936"/>
    </g>
  </g>
</svg>